<mxfile host="app.diagrams.net" modified="2023-05-12T14:48:50.438Z" agent="Mozilla/5.0 (Macintosh; Intel Mac OS X 10_15_7) AppleWebKit/537.36 (KHTML, like Gecko) Chrome/112.0.0.0 Safari/537.36" etag="6xz7b-X6e2J0ghtJ-1Rq" version="21.2.9" type="github">
  <diagram name="Page-1" id="2YBvvXClWsGukQMizWep">
    <mxGraphModel dx="1804" dy="615" grid="1" gridSize="10" guides="1" tooltips="1" connect="1" arrows="1" fold="1" page="1" pageScale="1" pageWidth="850" pageHeight="1100" math="0" shadow="0">
      <root>
        <mxCell id="0" />
        <mxCell id="1" parent="0" />
        <mxCell id="aM9ryv3xv72pqoxQDRHE-1" value="商品管理后台" style="shape=umlLifeline;perimeter=lifelinePerimeter;whiteSpace=wrap;html=1;container=0;dropTarget=0;collapsible=0;recursiveResize=0;outlineConnect=0;portConstraint=eastwest;newEdgeStyle={&quot;edgeStyle&quot;:&quot;elbowEdgeStyle&quot;,&quot;elbow&quot;:&quot;vertical&quot;,&quot;curved&quot;:0,&quot;rounded&quot;:0};" parent="1" vertex="1">
          <mxGeometry x="30" y="40" width="100" height="390" as="geometry" />
        </mxCell>
        <mxCell id="aM9ryv3xv72pqoxQDRHE-2" value="" style="html=1;points=[];perimeter=orthogonalPerimeter;outlineConnect=0;targetShapes=umlLifeline;portConstraint=eastwest;newEdgeStyle={&quot;edgeStyle&quot;:&quot;elbowEdgeStyle&quot;,&quot;elbow&quot;:&quot;vertical&quot;,&quot;curved&quot;:0,&quot;rounded&quot;:0};" parent="aM9ryv3xv72pqoxQDRHE-1" vertex="1">
          <mxGeometry x="45" y="70" width="10" height="290" as="geometry" />
        </mxCell>
        <mxCell id="aM9ryv3xv72pqoxQDRHE-5" value="ProductController" style="shape=umlLifeline;perimeter=lifelinePerimeter;whiteSpace=wrap;html=1;container=0;dropTarget=0;collapsible=0;recursiveResize=0;outlineConnect=0;portConstraint=eastwest;newEdgeStyle={&quot;edgeStyle&quot;:&quot;elbowEdgeStyle&quot;,&quot;elbow&quot;:&quot;vertical&quot;,&quot;curved&quot;:0,&quot;rounded&quot;:0};" parent="1" vertex="1">
          <mxGeometry x="170" y="40" width="100" height="390" as="geometry" />
        </mxCell>
        <mxCell id="aM9ryv3xv72pqoxQDRHE-6" value="" style="html=1;points=[];perimeter=orthogonalPerimeter;outlineConnect=0;targetShapes=umlLifeline;portConstraint=eastwest;newEdgeStyle={&quot;edgeStyle&quot;:&quot;elbowEdgeStyle&quot;,&quot;elbow&quot;:&quot;vertical&quot;,&quot;curved&quot;:0,&quot;rounded&quot;:0};" parent="aM9ryv3xv72pqoxQDRHE-5" vertex="1">
          <mxGeometry x="45" y="70" width="10" height="290" as="geometry" />
        </mxCell>
        <mxCell id="aM9ryv3xv72pqoxQDRHE-7" value="请求服务" style="html=1;verticalAlign=bottom;endArrow=block;edgeStyle=elbowEdgeStyle;elbow=vertical;curved=0;rounded=0;" parent="1" source="aM9ryv3xv72pqoxQDRHE-2" target="aM9ryv3xv72pqoxQDRHE-6" edge="1">
          <mxGeometry relative="1" as="geometry">
            <mxPoint x="195" y="130" as="sourcePoint" />
            <Array as="points">
              <mxPoint x="170" y="190" />
              <mxPoint x="180" y="120" />
            </Array>
          </mxGeometry>
        </mxCell>
        <mxCell id="aM9ryv3xv72pqoxQDRHE-8" value="返回数据" style="html=1;verticalAlign=bottom;endArrow=open;dashed=1;endSize=8;edgeStyle=elbowEdgeStyle;elbow=vertical;curved=0;rounded=0;" parent="1" edge="1">
          <mxGeometry relative="1" as="geometry">
            <mxPoint x="85" y="249" as="targetPoint" />
            <Array as="points">
              <mxPoint x="160" y="249" />
              <mxPoint x="110" y="239" />
              <mxPoint x="190" y="299" />
            </Array>
            <mxPoint x="215" y="249" as="sourcePoint" />
          </mxGeometry>
        </mxCell>
        <mxCell id="CdzJKPUCj3IDnQ0lfXkr-9" value="" style="shape=umlLifeline;perimeter=lifelinePerimeter;whiteSpace=wrap;html=1;container=1;dropTarget=0;collapsible=0;recursiveResize=0;outlineConnect=0;portConstraint=eastwest;newEdgeStyle={&quot;edgeStyle&quot;:&quot;elbowEdgeStyle&quot;,&quot;elbow&quot;:&quot;vertical&quot;,&quot;curved&quot;:0,&quot;rounded&quot;:0};participant=umlActor;" parent="1" vertex="1">
          <mxGeometry x="-50" y="40" width="20" height="390" as="geometry" />
        </mxCell>
        <mxCell id="CdzJKPUCj3IDnQ0lfXkr-11" value="买家" style="text;html=1;strokeColor=none;fillColor=none;align=center;verticalAlign=middle;whiteSpace=wrap;rounded=0;" parent="1" vertex="1">
          <mxGeometry x="-100" y="40" width="60" height="30" as="geometry" />
        </mxCell>
        <mxCell id="CdzJKPUCj3IDnQ0lfXkr-12" value="" style="rounded=0;whiteSpace=wrap;html=1;" parent="1" vertex="1">
          <mxGeometry x="-45" y="105" width="10" height="295" as="geometry" />
        </mxCell>
        <mxCell id="CdzJKPUCj3IDnQ0lfXkr-14" value="管理商品" style="html=1;verticalAlign=bottom;endArrow=block;edgeStyle=elbowEdgeStyle;elbow=vertical;curved=0;rounded=0;" parent="1" target="aM9ryv3xv72pqoxQDRHE-2" edge="1">
          <mxGeometry width="80" relative="1" as="geometry">
            <mxPoint x="-35" y="130" as="sourcePoint" />
            <mxPoint x="70" y="130" as="targetPoint" />
          </mxGeometry>
        </mxCell>
        <mxCell id="CdzJKPUCj3IDnQ0lfXkr-15" value="返回界面" style="html=1;verticalAlign=bottom;endArrow=open;dashed=1;endSize=8;edgeStyle=elbowEdgeStyle;elbow=vertical;curved=0;rounded=0;" parent="1" source="aM9ryv3xv72pqoxQDRHE-2" edge="1">
          <mxGeometry relative="1" as="geometry">
            <mxPoint x="45" y="150" as="sourcePoint" />
            <mxPoint x="-35" y="150" as="targetPoint" />
            <Array as="points">
              <mxPoint x="60" y="150" />
              <mxPoint x="-20" y="150" />
            </Array>
          </mxGeometry>
        </mxCell>
        <mxCell id="CdzJKPUCj3IDnQ0lfXkr-16" value="修改商品信息" style="html=1;verticalAlign=bottom;endArrow=block;edgeStyle=elbowEdgeStyle;elbow=vertical;curved=0;rounded=0;" parent="1" target="aM9ryv3xv72pqoxQDRHE-2" edge="1">
          <mxGeometry width="80" relative="1" as="geometry">
            <mxPoint x="-35" y="180" as="sourcePoint" />
            <mxPoint x="80" y="180" as="targetPoint" />
          </mxGeometry>
        </mxCell>
        <mxCell id="CdzJKPUCj3IDnQ0lfXkr-17" value="修改成功" style="html=1;verticalAlign=bottom;endArrow=open;dashed=1;endSize=8;edgeStyle=elbowEdgeStyle;elbow=vertical;curved=0;rounded=0;" parent="1" edge="1">
          <mxGeometry relative="1" as="geometry">
            <mxPoint x="75" y="260" as="sourcePoint" />
            <mxPoint x="-35" y="260" as="targetPoint" />
            <Array as="points">
              <mxPoint x="60" y="260" />
              <mxPoint x="-20" y="260" />
            </Array>
          </mxGeometry>
        </mxCell>
        <mxCell id="CdzJKPUCj3IDnQ0lfXkr-18" value="ProductService" style="shape=umlLifeline;perimeter=lifelinePerimeter;whiteSpace=wrap;html=1;container=0;dropTarget=0;collapsible=0;recursiveResize=0;outlineConnect=0;portConstraint=eastwest;newEdgeStyle={&quot;edgeStyle&quot;:&quot;elbowEdgeStyle&quot;,&quot;elbow&quot;:&quot;vertical&quot;,&quot;curved&quot;:0,&quot;rounded&quot;:0};" parent="1" vertex="1">
          <mxGeometry x="300" y="40" width="100" height="390" as="geometry" />
        </mxCell>
        <mxCell id="CdzJKPUCj3IDnQ0lfXkr-19" value="" style="html=1;points=[];perimeter=orthogonalPerimeter;outlineConnect=0;targetShapes=umlLifeline;portConstraint=eastwest;newEdgeStyle={&quot;edgeStyle&quot;:&quot;elbowEdgeStyle&quot;,&quot;elbow&quot;:&quot;vertical&quot;,&quot;curved&quot;:0,&quot;rounded&quot;:0};" parent="CdzJKPUCj3IDnQ0lfXkr-18" vertex="1">
          <mxGeometry x="45" y="70" width="10" height="290" as="geometry" />
        </mxCell>
        <mxCell id="CdzJKPUCj3IDnQ0lfXkr-20" value="ProductDao" style="shape=umlLifeline;perimeter=lifelinePerimeter;whiteSpace=wrap;html=1;container=0;dropTarget=0;collapsible=0;recursiveResize=0;outlineConnect=0;portConstraint=eastwest;newEdgeStyle={&quot;edgeStyle&quot;:&quot;elbowEdgeStyle&quot;,&quot;elbow&quot;:&quot;vertical&quot;,&quot;curved&quot;:0,&quot;rounded&quot;:0};" parent="1" vertex="1">
          <mxGeometry x="430" y="40" width="100" height="390" as="geometry" />
        </mxCell>
        <mxCell id="CdzJKPUCj3IDnQ0lfXkr-21" value="" style="html=1;points=[];perimeter=orthogonalPerimeter;outlineConnect=0;targetShapes=umlLifeline;portConstraint=eastwest;newEdgeStyle={&quot;edgeStyle&quot;:&quot;elbowEdgeStyle&quot;,&quot;elbow&quot;:&quot;vertical&quot;,&quot;curved&quot;:0,&quot;rounded&quot;:0};" parent="CdzJKPUCj3IDnQ0lfXkr-20" vertex="1">
          <mxGeometry x="45" y="70" width="10" height="290" as="geometry" />
        </mxCell>
        <mxCell id="CdzJKPUCj3IDnQ0lfXkr-22" value="MySQL" style="shape=umlLifeline;perimeter=lifelinePerimeter;whiteSpace=wrap;html=1;container=0;dropTarget=0;collapsible=0;recursiveResize=0;outlineConnect=0;portConstraint=eastwest;newEdgeStyle={&quot;edgeStyle&quot;:&quot;elbowEdgeStyle&quot;,&quot;elbow&quot;:&quot;vertical&quot;,&quot;curved&quot;:0,&quot;rounded&quot;:0};" parent="1" vertex="1">
          <mxGeometry x="570" y="40" width="100" height="390" as="geometry" />
        </mxCell>
        <mxCell id="CdzJKPUCj3IDnQ0lfXkr-23" value="" style="html=1;points=[];perimeter=orthogonalPerimeter;outlineConnect=0;targetShapes=umlLifeline;portConstraint=eastwest;newEdgeStyle={&quot;edgeStyle&quot;:&quot;elbowEdgeStyle&quot;,&quot;elbow&quot;:&quot;vertical&quot;,&quot;curved&quot;:0,&quot;rounded&quot;:0};" parent="CdzJKPUCj3IDnQ0lfXkr-22" vertex="1">
          <mxGeometry x="45" y="70" width="10" height="290" as="geometry" />
        </mxCell>
        <mxCell id="CdzJKPUCj3IDnQ0lfXkr-24" value="上架商品" style="html=1;verticalAlign=bottom;endArrow=block;edgeStyle=elbowEdgeStyle;elbow=vertical;curved=0;rounded=0;" parent="1" target="aM9ryv3xv72pqoxQDRHE-2" edge="1">
          <mxGeometry width="80" relative="1" as="geometry">
            <mxPoint x="-35" y="290" as="sourcePoint" />
            <mxPoint x="70" y="290" as="targetPoint" />
            <Array as="points">
              <mxPoint y="300" />
              <mxPoint x="20" y="280" />
            </Array>
          </mxGeometry>
        </mxCell>
        <mxCell id="CdzJKPUCj3IDnQ0lfXkr-25" value="请求服务" style="html=1;verticalAlign=bottom;endArrow=block;edgeStyle=elbowEdgeStyle;elbow=vertical;curved=0;rounded=0;" parent="1" source="aM9ryv3xv72pqoxQDRHE-6" target="CdzJKPUCj3IDnQ0lfXkr-19" edge="1">
          <mxGeometry relative="1" as="geometry">
            <mxPoint x="230" y="200" as="sourcePoint" />
            <Array as="points">
              <mxPoint x="305" y="200" />
              <mxPoint x="315" y="130" />
            </Array>
            <mxPoint x="350" y="200" as="targetPoint" />
          </mxGeometry>
        </mxCell>
        <mxCell id="CdzJKPUCj3IDnQ0lfXkr-27" value="请求服务" style="html=1;verticalAlign=bottom;endArrow=block;edgeStyle=elbowEdgeStyle;elbow=vertical;curved=0;rounded=0;" parent="1" edge="1">
          <mxGeometry relative="1" as="geometry">
            <mxPoint x="355" y="206" as="sourcePoint" />
            <Array as="points">
              <mxPoint x="430" y="206" />
              <mxPoint x="440" y="136" />
            </Array>
            <mxPoint x="475" y="206" as="targetPoint" />
          </mxGeometry>
        </mxCell>
        <mxCell id="CdzJKPUCj3IDnQ0lfXkr-28" value="查询数据" style="html=1;verticalAlign=bottom;endArrow=block;edgeStyle=elbowEdgeStyle;elbow=vertical;curved=0;rounded=0;" parent="1" source="CdzJKPUCj3IDnQ0lfXkr-21" target="CdzJKPUCj3IDnQ0lfXkr-23" edge="1">
          <mxGeometry relative="1" as="geometry">
            <mxPoint x="490" y="210" as="sourcePoint" />
            <Array as="points">
              <mxPoint x="555" y="210" />
              <mxPoint x="565" y="140" />
            </Array>
            <mxPoint x="600" y="210" as="targetPoint" />
          </mxGeometry>
        </mxCell>
        <mxCell id="CdzJKPUCj3IDnQ0lfXkr-29" value="返回数据" style="html=1;verticalAlign=bottom;endArrow=open;dashed=1;endSize=8;edgeStyle=elbowEdgeStyle;elbow=vertical;curved=0;rounded=0;" parent="1" source="CdzJKPUCj3IDnQ0lfXkr-23" edge="1">
          <mxGeometry relative="1" as="geometry">
            <mxPoint x="484.5" y="230" as="targetPoint" />
            <Array as="points">
              <mxPoint x="560" y="230" />
              <mxPoint x="510" y="220" />
              <mxPoint x="590" y="280" />
            </Array>
            <mxPoint x="610" y="230" as="sourcePoint" />
          </mxGeometry>
        </mxCell>
        <mxCell id="CdzJKPUCj3IDnQ0lfXkr-30" value="返回数据" style="html=1;verticalAlign=bottom;endArrow=open;dashed=1;endSize=8;edgeStyle=elbowEdgeStyle;elbow=vertical;curved=0;rounded=0;" parent="1" edge="1">
          <mxGeometry relative="1" as="geometry">
            <mxPoint x="355" y="235" as="targetPoint" />
            <Array as="points">
              <mxPoint x="435.5" y="235" />
              <mxPoint x="385.5" y="225" />
              <mxPoint x="465.5" y="285" />
            </Array>
            <mxPoint x="475" y="235" as="sourcePoint" />
          </mxGeometry>
        </mxCell>
        <mxCell id="CdzJKPUCj3IDnQ0lfXkr-31" value="返回数据" style="html=1;verticalAlign=bottom;endArrow=open;dashed=1;endSize=8;edgeStyle=elbowEdgeStyle;elbow=vertical;curved=0;rounded=0;" parent="1" edge="1">
          <mxGeometry relative="1" as="geometry">
            <mxPoint x="225" y="241" as="targetPoint" />
            <Array as="points">
              <mxPoint x="310.5" y="241" />
              <mxPoint x="260.5" y="231" />
              <mxPoint x="340.5" y="291" />
            </Array>
            <mxPoint x="345" y="241" as="sourcePoint" />
          </mxGeometry>
        </mxCell>
        <mxCell id="CdzJKPUCj3IDnQ0lfXkr-32" value="请求服务" style="html=1;verticalAlign=bottom;endArrow=block;edgeStyle=elbowEdgeStyle;elbow=vertical;curved=0;rounded=0;" parent="1" edge="1">
          <mxGeometry relative="1" as="geometry">
            <mxPoint x="85" y="310" as="sourcePoint" />
            <Array as="points">
              <mxPoint x="170" y="310" />
              <mxPoint x="180" y="240" />
            </Array>
            <mxPoint x="215" y="310" as="targetPoint" />
          </mxGeometry>
        </mxCell>
        <mxCell id="CdzJKPUCj3IDnQ0lfXkr-33" value="请求服务" style="html=1;verticalAlign=bottom;endArrow=block;edgeStyle=elbowEdgeStyle;elbow=vertical;curved=0;rounded=0;" parent="1" edge="1">
          <mxGeometry relative="1" as="geometry">
            <mxPoint x="225" y="320" as="sourcePoint" />
            <Array as="points">
              <mxPoint x="305" y="320" />
              <mxPoint x="315" y="250" />
            </Array>
            <mxPoint x="345" y="320" as="targetPoint" />
          </mxGeometry>
        </mxCell>
        <mxCell id="CdzJKPUCj3IDnQ0lfXkr-34" value="请求服务" style="html=1;verticalAlign=bottom;endArrow=block;edgeStyle=elbowEdgeStyle;elbow=vertical;curved=0;rounded=0;" parent="1" edge="1">
          <mxGeometry relative="1" as="geometry">
            <mxPoint x="355" y="329" as="sourcePoint" />
            <Array as="points">
              <mxPoint x="430" y="329" />
              <mxPoint x="440" y="259" />
            </Array>
            <mxPoint x="475" y="329" as="targetPoint" />
          </mxGeometry>
        </mxCell>
        <mxCell id="CdzJKPUCj3IDnQ0lfXkr-35" value="更新数据" style="html=1;verticalAlign=bottom;endArrow=block;edgeStyle=elbowEdgeStyle;elbow=vertical;curved=0;rounded=0;" parent="1" edge="1">
          <mxGeometry relative="1" as="geometry">
            <mxPoint x="486" y="340" as="sourcePoint" />
            <Array as="points">
              <mxPoint x="556" y="340" />
              <mxPoint x="566" y="270" />
            </Array>
            <mxPoint x="616" y="340" as="targetPoint" />
          </mxGeometry>
        </mxCell>
        <mxCell id="CdzJKPUCj3IDnQ0lfXkr-37" value="返回数据" style="html=1;verticalAlign=bottom;endArrow=open;dashed=1;endSize=8;edgeStyle=elbowEdgeStyle;elbow=vertical;curved=0;rounded=0;" parent="1" edge="1">
          <mxGeometry relative="1" as="geometry">
            <mxPoint x="485" y="360" as="targetPoint" />
            <Array as="points">
              <mxPoint x="560.5" y="360" />
              <mxPoint x="510.5" y="350" />
              <mxPoint x="590.5" y="410" />
            </Array>
            <mxPoint x="615.5" y="360" as="sourcePoint" />
          </mxGeometry>
        </mxCell>
        <mxCell id="CdzJKPUCj3IDnQ0lfXkr-39" value="返回数据" style="html=1;verticalAlign=bottom;endArrow=open;dashed=1;endSize=8;edgeStyle=elbowEdgeStyle;elbow=vertical;curved=0;rounded=0;" parent="1" edge="1">
          <mxGeometry relative="1" as="geometry">
            <mxPoint x="355" y="368" as="targetPoint" />
            <Array as="points">
              <mxPoint x="435.5" y="368" />
              <mxPoint x="385.5" y="358" />
              <mxPoint x="465.5" y="418" />
            </Array>
            <mxPoint x="475" y="368" as="sourcePoint" />
          </mxGeometry>
        </mxCell>
        <mxCell id="CdzJKPUCj3IDnQ0lfXkr-40" value="返回数据" style="html=1;verticalAlign=bottom;endArrow=open;dashed=1;endSize=8;edgeStyle=elbowEdgeStyle;elbow=vertical;curved=0;rounded=0;" parent="1" edge="1">
          <mxGeometry relative="1" as="geometry">
            <mxPoint x="224" y="378" as="targetPoint" />
            <Array as="points">
              <mxPoint x="309.5" y="378" />
              <mxPoint x="259.5" y="368" />
              <mxPoint x="339.5" y="428" />
            </Array>
            <mxPoint x="344" y="378" as="sourcePoint" />
          </mxGeometry>
        </mxCell>
        <mxCell id="CdzJKPUCj3IDnQ0lfXkr-41" value="返回数据" style="html=1;verticalAlign=bottom;endArrow=open;dashed=1;endSize=8;edgeStyle=elbowEdgeStyle;elbow=vertical;curved=0;rounded=0;" parent="1" edge="1">
          <mxGeometry relative="1" as="geometry">
            <mxPoint x="84" y="384" as="targetPoint" />
            <Array as="points">
              <mxPoint x="159" y="384" />
              <mxPoint x="109" y="374" />
              <mxPoint x="189" y="434" />
            </Array>
            <mxPoint x="214" y="384" as="sourcePoint" />
          </mxGeometry>
        </mxCell>
        <mxCell id="CdzJKPUCj3IDnQ0lfXkr-42" value="上架成功" style="html=1;verticalAlign=bottom;endArrow=open;dashed=1;endSize=8;edgeStyle=elbowEdgeStyle;elbow=vertical;curved=0;rounded=0;" parent="1" edge="1">
          <mxGeometry relative="1" as="geometry">
            <mxPoint x="75" y="390" as="sourcePoint" />
            <mxPoint x="-35" y="390" as="targetPoint" />
            <Array as="points">
              <mxPoint x="60" y="390" />
              <mxPoint x="-20" y="390" />
            </Array>
          </mxGeometry>
        </mxCell>
      </root>
    </mxGraphModel>
  </diagram>
</mxfile>
